<?xml version="1.0" encoding="utf-8"?>
<!-- Generator: Adobe Illustrator 24.0.2, SVG Export Plug-In . SVG Version: 6.00 Build 0)  -->
<svg width="94" height="94" version="1.1" id="Layer_1" xmlns="http://www.w3.org/2000/svg" xmlns:xlink="http://www.w3.org/1999/xlink" x="0px" y="0px"
	 viewBox="0 0 96 97" style="enable-background:new 0 0 96 97;" xml:space="preserve">
<style type="text/css">
	.st0{fill:#60A5FA;stroke:#2563EB;stroke-width:3;}
</style>
<path class="st0" d="M45.1,90.6H8.3c-1.6,0-2.9-1.3-2.9-2.9V50.9c0-1.6,1.3-2.9,2.9-2.9h36.8c1.6,0,2.9,1.3,2.9,2.9v36.8
	C48,89.3,46.7,90.6,45.1,90.6z"/>
<path class="st0" d="M87.7,90.6H50.9c-1.6,0-2.9-1.3-2.9-2.9V50.9c0-1.6,1.3-2.9,2.9-2.9h36.8c1.6,0,2.9,1.3,2.9,2.9v36.8
	C90.6,89.3,89.3,90.6,87.7,90.6z"/>
<path class="st0" d="M87.7,48H50.9c-1.6,0-2.9-1.3-2.9-2.9V8.3c0-1.6,1.3-2.9,2.9-2.9h36.8c1.6,0,2.9,1.3,2.9,2.9v36.8
	C90.6,46.7,89.3,48,87.7,48z"/>
</svg>
