<?xml version="1.0" encoding="utf-8"?>
<!-- Generator: Adobe Illustrator 24.0.2, SVG Export Plug-In . SVG Version: 6.00 Build 0)  -->
<svg width="94" height="94" version="1.1" id="Layer_1" xmlns="http://www.w3.org/2000/svg" xmlns:xlink="http://www.w3.org/1999/xlink" x="0px" y="0px"
	 viewBox="0 0 94 94" style="enable-background:new 0 0 94 94;" xml:space="preserve">
<style type="text/css">
	.st0{fill:#60A5FA;stroke:#2563EB;stroke-width:3;}
	.st1{fill:#FFFFFF;stroke:#000000;stroke-width:3;}
	.st2{fill:none;stroke:#2563EB;stroke-width:3;}
</style>
<path class="st0" d="M47,2.1c24.8,0,44.9,20.1,44.9,44.9S71.8,91.9,47,91.9S2.1,71.8,2.1,47S22.2,2.1,47,2.1z"/>
<path class="st1" d="M45,25.3c-14.5,0-25.9,9.2-25.9,20.5c0,10.7,10.4,17.6,26.5,17.3l0.5,0L48,63l-0.5,1.2l0.1,0.1
	c0.1,0.3,0.2,0.6,0.4,0.9l0,0.1l0.1,0.2l0.1,0.3l0.1,0.2l0.1,0.2l0.1,0.2l0.1,0.3l0.1,0.3l0.1,0.2l0.1,0.4l0.1,0.4l0.1,0.4l0.1,0.4
	L49,69l0.1,0.4l0.1,0.4l0.1,0.6l0.1,0.3l0.1,0.5l0.1,0.5l0.1,0.5l0.1,0.7l0.1,0.6l0.2,0.8l0.1,0.4l0.1,0.6l0.1,0.7l0.2,0.9l0.2,0.9
	l0.2,1l0.2,1l0.2,1l0.2,1.1l0.2,1.1l0.1,0.8l0.2,1.4l0.1,0.6l0.2,1.5l0.2,1.2l0.2,0.9l0.2,1.3l0.1,0.6c10.7-1.4,20.3-6.6,27.2-14.2
	l0.2-0.2l-1-3.7l-2.6-9.9l-1.6-6.1L73.6,52l-0.9-3.3l-0.6-2.1l-0.3-1.2l-0.3-1.1l-0.1-0.5l-0.1-0.3l0-0.1l0-0.1
	c-1.5-4.9-4.5-9.2-8.5-12.4C58,27.2,52,25.3,45,25.3L45,25.3z"/>
<path d="M48.2,33.5c1.7,0,3.1,1.4,3.1,3.1s-1.4,3.1-3.1,3.1S45,38.4,45,36.6S46.4,33.5,48.2,33.5z"/>
<path class="st2" d="M47,2.1c24.8,0,44.9,20.1,44.9,44.9S71.8,91.9,47,91.9S2.1,71.8,2.1,47S22.2,2.1,47,2.1z"/>
</svg>
