<?xml version="1.0" encoding="utf-8"?>
<!-- Generator: Adobe Illustrator 24.0.2, SVG Export Plug-In . SVG Version: 6.00 Build 0)  -->
<svg width="94" height="94" version="1.1" id="Layer_1" xmlns="http://www.w3.org/2000/svg" xmlns:xlink="http://www.w3.org/1999/xlink" x="0px" y="0px"
	 viewBox="0 0 94 94" style="enable-background:new 0 0 94 94;" xml:space="preserve">
<style type="text/css">
	.st0{fill:#60A5FA;stroke:#2563EB;stroke-width:2.9072;stroke-miterlimit:3.8763;}
</style>
<path class="st0" d="M41.2,15.7l2.5,23c0.2,1.5-1,2.8-2.6,2.8h-25V18c0-2.5,2.1-4.6,4.6-4.6h18C40,13.4,41.1,14.4,41.2,15.7z"/>
<path class="st0" d="M16.1,52.5h26.8c1.3,0,2.4,1,2.6,2.3l2.5,23c0.2,1.5-1,2.8-2.6,2.8H20.7c-2.5,0-4.6-2.1-4.6-4.6V52.5z"/>
<path class="st0" d="M79.4,41.5h-26c-1.3,0-2.4-1-2.6-2.3l-2.5-23c-0.2-1.5,1-2.8,2.6-2.8h23.9c2.5,0,4.6,2.1,4.6,4.6V41.5z"/>
<path class="st0" d="M55.1,78.3l-2.5-23c-0.2-1.5,1-2.8,2.6-2.8h24.3V76c0,2.5-2.1,4.6-4.6,4.6H57.6C56.3,80.6,55.2,79.6,55.1,78.3z
	"/>
<path class="st0" d="M33.1,52.5H5.2c-1.3,0-2.3-1-2.3-2.3v-6.3c0-1.3,1-2.3,2.3-2.3h27.8c1.3,0,2.3,1,2.3,2.3v6.3
	C35.4,51.4,34.4,52.5,33.1,52.5z"/>
<path class="st0" d="M88.8,52.5H70.4c-1.3,0-2.3-1-2.3-2.3v-6.3c0-1.3,1-2.3,2.3-2.3h18.3c1.3,0,2.3,1,2.3,2.3v6.3
	C91.1,51.4,90,52.5,88.8,52.5z"/>
</svg>
