<svg xmlns="http://www.w3.org/2000/svg" viewBox="0 0 806.05 575.25"><defs><style>.cls-1{fill:#fff;}.cls-2{fill:#8b5cf6;}.cls-3{fill:#8064f4;}</style></defs><g id="Layer_2" data-name="Layer 2"><g id="Layer_1-2" data-name="Layer 1"><path class="cls-1" d="M756.27,235.56a147.73,147.73,0,0,1,8.66,110.78,75.42,75.42,0,0,0,20.63-57.21C783.89,267.79,772.79,248.49,756.27,235.56Z"/><path class="cls-2" d="M805.78,287.56c-3.25-41.4-34.21-76.88-75.36-86.2a93.34,93.34,0,0,0-24.17-2.28c-22.2-52.15-58.79-100.54-101.36-133.64C530.81,7.72,446.48-.44,403.1,0c-43.84-.41-127.91,7.7-202,65.42C158.58,98.58,122,147,99.75,199.08a93.51,93.51,0,0,0-24.17,2.28c-41.15,9.32-72.11,44.8-75.31,86.2s22.05,81.23,61.37,96.69a95.49,95.49,0,0,0,25.59,6.18c2.28,6.95,4.72,13.79,7.55,20.37C162.08,567.29,363.37,575.25,403,575.25s240.92-8,308.27-164.45c2.83-6.63,5.27-13.48,7.55-20.37a95.14,95.14,0,0,0,25.54-6.18C783.73,368.79,809,329,805.78,287.56ZM41.27,346.49c-14.44-15.25-22.45-36-20.78-57.36s12.72-40.64,29.29-53.57a146.34,146.34,0,0,0-8.51,110.93Zm40,22.56a80.26,80.26,0,0,1-9.12-2.59,129.65,129.65,0,0,1-17.73-67.9c.86-38.11,19-65.78,28.88-78.05a82.77,82.77,0,0,1,8.52-1.11C74.06,270.28,70.46,321.46,81.3,369.05Zm620.24,8.86a216.59,216.59,0,0,1-8.87,24.89C630.34,547.63,440.45,555,403,555S175.72,547.63,113.38,402.8a218.72,218.72,0,0,1-8.92-24.89v-.05c-15.1-51.23-11.25-108,11.15-164.14,20.53-51.59,56.25-99.83,98-132.32,67.91-52.85,145.29-61.11,187.1-61.11h2.43c40.95-.41,120.1,7.19,189.33,61.17,41.76,32.43,77.43,80.67,98,132.26C712.84,269.87,716.69,326.63,701.54,377.91Zm32.33-11.45a80.26,80.26,0,0,1-9.12,2.59c10.84-47.59,7.24-98.77-10.6-149.65a82,82,0,0,1,8.57,1.11c11.3,14,28,40.95,28.84,78.1A129.73,129.73,0,0,1,733.87,366.46Zm31.06-20.12a147.73,147.73,0,0,0-8.66-110.78c16.52,12.93,27.62,32.23,29.29,53.57A75.47,75.47,0,0,1,764.93,346.34Z"/><path class="cls-1" d="M714.15,219.4c17.84,50.88,21.44,102.06,10.6,149.65a80.26,80.26,0,0,0,9.12-2.59,129.73,129.73,0,0,0,17.69-67.85c-.82-37.15-17.54-64.06-28.84-78.1A82,82,0,0,0,714.15,219.4Z"/><path class="cls-3" d="M403,94.43c-23.72,0-114.68,0-178.94,69.73-63.55,68.92-82.65,186.14-26.4,267.78,59.29,86,170.17,86,205.34,86s146,0,205.34-86c56.3-81.64,37.14-198.86-26.35-267.78C517.73,94.43,426.77,94.43,403,94.43ZM262.88,353.19c-7.25,13.07-24.53,18.95-38.31,11.8-14.75-7.6-19.31-26.9-11.25-40.54,6.94-11.76,22.19-17.33,34.91-12.36C263.79,318.12,271.19,338.18,262.88,353.19ZM376.7,201c-11.4,20.78-39.43,8.77-63.9,32.54C290,255.68,299,281.12,279,289.89c-15.66,6.84-38.27-1.32-48.66-15.3-19.15-25.8,3.3-70.95,24.43-94.51,27.62-30.87,80.83-55.75,108.19-34.57C378.42,157.47,385.87,184.33,376.7,201Z"/><path class="cls-1" d="M592.43,81.46c-69.23-54-148.38-61.57-189.33-61.17h-2.43c-41.81,0-119.19,8.26-187.1,61.12-41.71,32.48-77.43,80.73-98,132.32-22.4,56.14-26.25,112.9-11.15,164.14v.05a219.25,219.25,0,0,0,8.92,24.88C175.72,547.63,365.6,555,403,555s227.34-7.35,289.67-152.18a219,219,0,0,0,8.87-24.88c15.15-51.29,11.3-108-11.1-164.19C669.86,162.14,634.19,113.89,592.43,81.46Zm15.91,350.48c-59.29,86-170.12,86-205.34,86s-146,0-205.34-86c-56.25-81.64-37.15-198.86,26.4-267.78C288.32,94.43,379.29,94.43,403,94.43s114.74,0,179,69.73C645.49,233.08,664.64,350.3,608.34,431.94Z"/><path class="cls-1" d="M363,145.51c-27.36-21.18-80.57,3.7-108.19,34.56-21.13,23.57-43.58,68.72-24.43,94.51,10.39,14,33,22.15,48.66,15.31,20-8.77,11-34.21,33.8-56.41,24.47-23.76,52.5-11.75,63.9-32.53C385.87,184.33,378.42,157.47,363,145.51Z"/><path class="cls-1" d="M248.23,312.09c-12.72-5-28,.61-34.91,12.36-8.06,13.64-3.5,32.94,11.25,40.54,13.78,7.15,31.06,1.27,38.31-11.8C271.19,338.18,263.79,318.12,248.23,312.09Z"/><path class="cls-1" d="M54.45,298.56a129.65,129.65,0,0,0,17.73,67.9,80.26,80.26,0,0,0,9.12,2.59c-10.84-47.59-7.24-98.77,10.54-149.65a82.94,82.94,0,0,0-8.51,1.11C73.5,232.78,55.31,260.45,54.45,298.56Z"/><path class="cls-1" d="M20.49,289.13c-1.67,21.39,6.34,42.11,20.78,57.36a146.21,146.21,0,0,1,8.51-110.93C33.21,248.49,22.11,267.79,20.49,289.13Z"/></g></g></svg>